<svg width="1011" height="232" viewBox="0 0 1011 232" fill="none" xmlns="http://www.w3.org/2000/svg">
<path d="M87.7183 0H0V232H87.7183V0Z" fill="#4E3D31"/>
<path d="M212.877 0H125.159V232H212.877V171.181L228.923 232H316.642V0H228.923V82.9722L212.877 0Z" fill="#4E3D31"/>
<path d="M442.514 0H354.795V116C354.795 232 354.795 232 442.514 232H453.568C541.286 232 541.286 232 541.286 116V0H453.568V146.611C453.568 152.653 442.514 152.653 442.514 146.611V0Z" fill="#4E3D31"/>
<path d="M659.662 0H578.013V232H659.662V167.153L682.491 232H770.209L736.844 116L770.209 0H682.491L659.662 71.6945V0Z" fill="#4E3D31"/>
<path d="M801.195 232H884.776L907.287 167.153L928.995 232H1011L928.995 0H884.776L801.195 232Z" fill="#4E3D31"/>
</svg>
